<?xml version="1.0" standalone="no"?><!DOCTYPE svg PUBLIC "-//W3C//DTD SVG 1.1//EN" "http://www.w3.org/Graphics/SVG/1.1/DTD/svg11.dtd"><svg t="1732355420229" class="icon" viewBox="0 0 1024 1024" version="1.1" xmlns="http://www.w3.org/2000/svg" p-id="4263" xmlns:xlink="http://www.w3.org/1999/xlink" width="24" height="24"><path d="M204.8 811.52c-15.36 0-28.16-5.12-40.96-12.8-15.36-10.24-23.04-25.6-25.6-43.52v-23.04L179.2 542.72c5.12-17.92 12.8-30.72 25.6-43.52l337.92-358.4c51.2-56.32 140.8-58.88 194.56-5.12l2.56 2.56 71.68 71.68c53.76 53.76 53.76 140.8 0 194.56L463.36 757.76c-12.8 12.8-30.72 23.04-48.64 25.6l-199.68 28.16H204.8zM642.56 189.44c-12.8 0-23.04 5.12-33.28 15.36L271.36 563.2l-33.28 151.04 161.28-23.04 348.16-353.28c17.92-17.92 17.92-46.08 0-64l-71.68-71.68c-10.24-10.24-20.48-12.8-33.28-12.8z" fill="#333333" p-id="4264"></path><path d="M242.688 546.9696l63.8976-66.432 179.0208 172.1088-63.8976 66.432zM803.84 960H194.56c-25.6 0-46.08-20.48-46.08-46.08s20.48-46.08 46.08-46.08h609.28c25.6 0 46.08 20.48 46.08 46.08s-20.48 46.08-46.08 46.08z" fill="#333333" p-id="4265"></path></svg>